<?xml version="1.0" encoding="utf-8"?>
<!-- Generator: Adobe Illustrator 27.3.0, SVG Export Plug-In . SVG Version: 6.00 Build 0)  -->
<svg version="1.1" id="Layer_1" xmlns="http://www.w3.org/2000/svg" xmlns:xlink="http://www.w3.org/1999/xlink" x="0px" y="0px"
	 viewBox="0 0 122.6 84.2" style="enable-background:new 0 0 122.6 84.2;" xml:space="preserve">
<style type="text/css">
	.st0{fill:#FED250;}
</style>
<g>
	<path id="d" class="st0" d="M116.1,63h-9.5c-0.5,0-0.6-0.3-0.9-0.7c-2.5-3.8-5.1-7.4-7.5-11.2C96.8,49,95.4,47,94,44.9
		c-0.5-0.7-0.8-0.2-1,0.1c-1,1.6-2.2,3.1-3.2,4.6l-12,17.8c-0.2,0.4-0.7,0.6-1.1,0.6h-7.6c-0.8,0-0.6-0.3-0.3-0.8l12.1-17.9
		c4.2-6,8.3-12.2,12.6-18.1s8.2-11.6,12.1-17.6c1.4-2.1,2.8-2.9,5.2-2.6c1.9,0.1,3.8,0.1,5.6,0l-4.5,6.5l-10,14.6l-2.5,3.7
		c-0.6,0.7-0.6,1.7,0,2.4c3.4,5,6.9,10.2,10.3,15.3c2,2.9,4,5.9,6,8.8C115.8,62.4,115.9,62.6,116.1,63L116.1,63z"/>
	<path id="e" class="st0" d="M63.7,0h9.2c0.5,0,1,0.2,1.3,0.6c4.8,7,9.7,14,14.5,21.1c1.5,2.1,2.8,4.2,4.5,6.2
		c0.5,0.6,0.5,1.5,0,2.1l0,0c-1.6,2-3,4.2-4.6,6.3C87.5,35.7,64.6,1.8,63.7,0z"/>
	<path d="M72.8,38.5c-1.5-2-3.6-3.6-5.9-4.4v-0.5c1.9-0.9,3.5-2.3,4.6-4.1c2.5-4,2.4-9.1-0.2-13c-1.3-2-3.2-3.6-5.3-4.6
		c-2.3-1.2-4.8-1.7-7.3-1.7H34c3.9,2.1,7.7,6.2,8.2,14c0.1,0.9,1,9.4-9.9,15.5l13.2,19.7h13.7c2.7,0,5.4-0.5,7.9-1.7
		c4.7-2.1,7.7-6.7,7.7-11.9C75,43.2,74.3,40.6,72.8,38.5z M48.8,18.5h9.4c3.3-0.2,6.1,2.4,6.3,5.7c0,0.1,0,0.2,0,0.3
		c0,1.6-0.7,3.2-1.9,4.2c-1.3,1.2-3,1.8-4.7,1.7h-9.2L48.8,18.5L48.8,18.5z M63.9,49.2c-1.4,1.3-3.2,2-5.1,1.9h-10V38.2h9.9
		c2-0.2,3.9,0.5,5.3,1.9c1.3,1.2,2,2.9,1.9,4.6C65.9,46.5,65.2,48.1,63.9,49.2z"/>
	<path d="M29.1,38.7l1.1-0.5c11-5.3,9.9-13.4,9.8-13.7v-0.1c-0.1-7.9-6.5-14.2-14.4-14.2H6.1V51l0,0v0.5c1.4,7,8.9,7.8,9,7.8l0,0V51
		l0,0V40.9h4.2l12.6,18.3h11L29.1,38.7z M23.5,32.4h-8.3V18.7h8.4c1.9-0.1,3.7,0.6,5,2c1.3,1.3,1.9,3,1.9,4.8c0.1,1.8-0.6,3.6-2,4.8
		C27.3,31.8,25.4,32.5,23.5,32.4L23.5,32.4z"/>
</g>
<g>
	<path d="M0.4,81.9l0.8-1c1,1,2.2,1.7,3.8,1.7c1.8,0,2.7-1,2.7-2c0-1.2-1.1-1.7-3.1-2.2c-2.3-0.5-3.8-1.3-3.8-3.3
		c0-1.9,1.7-3.3,3.9-3.3c1.7,0,3,0.7,4.1,1.7l-0.8,1C7,73.6,5.9,73,4.7,73c-1.4,0-2.5,1-2.5,2c0,1.2,1.2,1.6,3.1,2.1
		c2.2,0.5,3.8,1.3,3.8,3.4c0,1.9-1.4,3.4-4.1,3.4C3,83.7,1.5,83,0.4,81.9z"/>
	<path d="M11.5,78.7v-6.8h1.3v6.8c0,2.2,1.5,3.8,3.6,3.8s3.6-1.6,3.6-3.8v-6.8h1.3v6.8c0,3-2,5-4.9,5C13.5,83.8,11.5,81.7,11.5,78.7
		z"/>
	<path d="M24.3,71.9h5.4c1.9,0,3.2,1.2,3.2,2.9c0,1.2-0.6,2-1.7,2.6c1.3,0.7,2.1,1.7,2.1,3c0,1.9-1.4,3.2-3.5,3.2h-5.6L24.3,71.9
		L24.3,71.9z M29.3,76.8c1.3,0,2.2-0.8,2.2-1.9S30.6,73,29.3,73h-3.7v3.8H29.3z M29.5,82.3c1.4,0,2.5-0.9,2.5-2.2s-1-2.2-2.5-2.2
		h-3.9v4.3L29.5,82.3L29.5,82.3z"/>
	<path d="M35,81.9l0.8-1c1,1,2.2,1.7,3.8,1.7c1.8,0,2.7-1,2.7-2c0-1.2-1.1-1.7-3.1-2.2c-2.3-0.5-3.8-1.3-3.8-3.3
		c0-1.9,1.7-3.3,3.9-3.3c1.7,0,3,0.7,4.1,1.7l-0.8,1c-1-0.9-2.1-1.5-3.3-1.5c-1.4,0-2.5,1-2.5,2c0,1.2,1.2,1.6,3.1,2.1
		c2.2,0.5,3.8,1.3,3.8,3.4c0,1.9-1.4,3.4-4.1,3.4C37.7,83.7,36.2,83,35,81.9z"/>
	<path d="M45.6,77.7c0-3.3,2.8-6,6-6c1.6,0,3.1,0.7,4.2,1.8l-0.9,0.9c-0.9-0.9-2-1.5-3.3-1.5c-2.5,0-4.6,2.2-4.6,4.8
		c0,2.6,2.1,4.8,4.6,4.8c1.3,0,2.4-0.6,3.3-1.5l0.9,0.9c-1.1,1.1-2.6,1.8-4.2,1.8C48.3,83.8,45.6,81,45.6,77.7z"/>
	<path d="M63.5,79.2l3,4.3H65l-3-4.2h-3.1v4.2h-1.3V71.9h4.7c2.4,0,4.3,1.5,4.3,3.7C66.6,77.4,65.3,78.8,63.5,79.2z M58.9,78.1h3.2
		c1.9,0,3.2-0.9,3.2-2.5s-1.3-2.5-3.2-2.5h-3.2V78.1z"/>
	<path d="M68.6,71.9h1.3v11.7h-1.3V71.9z"/>
	<path d="M72.7,71.9h4.7c2.4,0,4.3,1.5,4.3,3.7s-1.9,3.7-4.3,3.7H74v4.2h-1.3C72.7,83.5,72.7,71.9,72.7,71.9z M77.2,78.1
		c1.9,0,3.2-0.9,3.2-2.5s-1.3-2.5-3.2-2.5H74v5H77.2z"/>
	<path d="M86.9,73.1H83v-1.3h9.2v1.3h-3.9v10.4h-1.4V73.1z"/>
	<path d="M94.3,71.9h1.3v11.7h-1.3V71.9z"/>
	<path d="M97.9,77.7c0-3.3,2.8-6,6-6s6,2.8,6,6s-2.7,6.1-6,6.1S97.9,81,97.9,77.7z M108.5,77.7c0-2.6-2.1-4.8-4.6-4.8
		s-4.6,2.2-4.6,4.8c0,2.6,2.1,4.8,4.6,4.8S108.5,80.3,108.5,77.7z"/>
	<path d="M112.3,71.9h1.3l7.2,9.5v-9.5h1.3v11.7h-1.2l-7.2-9.5v9.5h-1.3L112.3,71.9L112.3,71.9z"/>
</g>
</svg>
