<?xml version="1.0" encoding="utf-8"?>
<!-- Generator: Adobe Illustrator 27.3.0, SVG Export Plug-In . SVG Version: 6.00 Build 0)  -->
<svg version="1.1" id="Layer_1" xmlns="http://www.w3.org/2000/svg" xmlns:xlink="http://www.w3.org/1999/xlink" x="0px" y="0px"
	 viewBox="0 0 3116.88 1086.23" style="enable-background:new 0 0 3116.88 1086.23;" xml:space="preserve">
<style type="text/css">
	.st0{fill:#FFD24F;}
	.st1{fill:#FFFFFF;}
	.st2{fill-rule:evenodd;clip-rule:evenodd;}
	.st3{fill-rule:evenodd;clip-rule:evenodd;fill:#FFD24F;}
	.st4{fill:none;}
</style>
<g>
	<path id="XMLID_152_" d="M1329.97,534.7l-57.53-103.15h-51.57V534.7h-50.78V257h101.56c53.56,0,95.61,19.83,95.61,80.14
		c0,42.84-21.03,64.67-47.21,80.93l62.68,116.64H1329.97z M1220.87,299.44v84.51h37.3c46.01,0,55.93-18.25,55.93-43.24
		c0-25.79-10.31-41.26-53.95-41.26H1220.87z"/>
	<path id="XMLID_149_" d="M1872.72,411.72V534.7h-50.78V411.72L1725.93,257h53.96l67.44,109.49L1914.77,257h53.96L1872.72,411.72z"
		/>
	<path id="XMLID_146_" d="M2116.52,534.7l-23.8-67.05h-92.44l-23.8,67.05h-52.77L2022.49,257h48l98.79,277.71H2116.52z
		 M2046.29,337.14l-28.56,81.33h57.53L2046.29,337.14z"/>
	<path id="XMLID_144_" d="M2220.74,534.7V257h50.78v228.51h114.26v49.19H2220.74z"/>
	<path id="XMLID_140_" d="M921.43,889.39V611.68h74.98c63.88,0,106.32,9.92,106.32,71.41c0,25-7.14,44.44-23.4,57.93
		c32.13,12.3,48.39,31.34,48.39,66.65c0,64.27-52.76,81.73-99.18,81.73H921.43z M972.21,654.92v68.24h49.59
		c14.28,0,33.72-5.95,33.72-32.53c0-28.97-15.07-35.71-38.48-35.71H972.21z M972.21,763.23v82.92h49.99
		c32.53,0,53.16-9.92,53.16-41.26c0-32.14-21.82-41.66-50.39-41.66H972.21z"/>
	<path id="XMLID_136_" d="M1329.88,889.39l-57.53-103.15h-51.57v103.15H1170V611.68h101.56c53.56,0,95.61,19.83,95.61,80.14
		c0,42.84-21.03,64.67-47.21,80.93l62.68,116.64H1329.88z M1220.78,654.13v84.51h37.3c46.01,0,55.94-18.25,55.94-43.24
		c0-25.79-10.32-41.26-53.96-41.26H1220.78z"/>
	<path id="XMLID_134_" d="M1855.81,660.87v228.51h-50.78V660.87h-78.55v-49.19h207.89v49.19H1855.81z"/>
	<path id="XMLID_132_" d="M2160.27,889.39V769.18h-130.92v120.21h-50.78V611.68h50.78v108.3h130.92v-108.3h50.78v277.71H2160.27z"/>
	<path id="XMLID_130_" d="M2262,889.39V611.68h177.73v49.19h-125.76v59.11h97.59v49.2h-97.59v71.01h129.73v49.19H2262z"/>
	<path id="XMLID_86_" d="M2654.45,889.39l-57.53-103.15h-51.57v103.15h-50.78V611.68h101.56c53.56,0,95.61,19.83,95.61,80.14
		c0,42.84-21.03,64.67-47.21,80.93l62.68,116.64H2654.45z M2545.35,654.13v84.51h37.3c46.01,0,55.94-18.25,55.94-43.24
		c0-25.79-10.32-41.26-53.96-41.26H2545.35z"/>
	<path id="XMLID_84_" d="M2741.64,878.12l0.05-61.33c15.07,14.68,45.62,29.36,87.29,29.36c29.75,0,49.58-7.54,49.58-30.15
		c0-28.17-30.94-38.09-64.67-49.59c-39.28-13.49-82.12-27.38-82.12-76.96c0-36.9,25.39-83.32,100.37-83.32
		c38.09,0,68.9,8.82,83.18,18.34l0.13,55.06c-29.75-16.26-54.74-24.99-81.32-24.99c-21.43,0-50.78,5.56-50.78,29.36
		c0,22.21,25.78,30.95,55.93,40.07c43.24,13.09,96.01,28.97,96.01,90.06c0,31.74-13.89,80.94-107.52,80.94
		C2785.74,894.95,2757.51,888.42,2741.64,878.12z"/>
	<path id="XMLID_81_" d="M1515.97,571.85c-12.33-13.38-25.99-27.54-38.94-42.41c-19.76-22.67-37.14-47.25-48.03-76.35
		c-30.98-82.73,14.16-173.71,95.45-192.66c70.89-16.52,140.86,28.03,160.04,102.23c10.23,39.57,3.42,76.74-15.13,111.93
		c-16.2,30.75-38.21,56.48-61.76,80.72c-24.21,24.92-49.08,49.1-73.35,73.95c-18.49,18.93-35.95,38.93-49.45,62.45
		c-8.03,14-14.32,28.79-15.89,45.38c-3.28,34.49,8.7,62.03,34.5,82.12c49.18,38.29,119.45,11.07,134.14-51.51
		c5.02-21.39,1.78-41.74-6.97-61.33c-10.76-24.08-26.82-43.94-43.72-63.12c-9.8-11.13-10.23-26.3-1.04-37
		c8.89-10.36,24.26-12.25,33.56-2.41c27.58,29.18,51.88,61.09,63.63,101.62c22.61,77.97-21.12,160.09-95.23,179.61
		c-71.06,18.72-142.84-24.12-163.35-97.74c-10.99-39.47-5.31-76.97,12.77-112.74c12.99-25.7,30.46-47.69,49.14-68.72
		C1496.27,594.69,1506,583.31,1515.97,571.85z M1554.56,537.66c15.23-16.72,30.36-32.73,44.82-49.4
		c12.5-14.42,23.34-30.26,31.25-48.2c8.65-19.61,11.95-39.92,6.89-61.31c-14.32-60.44-80.59-88.43-130.03-54.28
		c-28.5,19.68-41.9,48.24-38.54,84.96c1.59,17.33,8.38,32.68,17.01,47.09C1504.36,487.24,1529.02,511.9,1554.56,537.66z"/>
	<path id="XMLID_80_" class="st0" d="M1599.78,385.21c-6.6-18.33-25.09-30.64-45.71-30.75c-4.38,0.01-8.69,0.52-12.91,1.64
		c-19.54,5.17-33.58,20.9-35.56,40.22c-1.19,11.54,1.87,22.09,9.04,31.41c11.7,15.21,23.49,30.36,35.24,45.53
		c2.5,3.22,5.77,3.22,8.26,0c11.7-15.11,23.51-30.14,35.07-45.35C1603.1,414.88,1605.28,400.49,1599.78,385.21z"/>
	<circle id="XMLID_79_" class="st1" cx="1554.04" cy="399.88" r="17.89"/>
	<g id="XMLID_18_">
		<path id="XMLID_78_" class="st2" d="M196.13,345.09c-0.59,106.88,44.11,221.06,93.79,312.27c47.75,87.66,129.37,209,220.32,250.82
			c91.15,41.91,191.28-83.91,240.15-152.06C819.49,659.78,868.59,556,894.87,438.21c29.16-130.69-3.51-203.4-126.53-240.16
			c-121.09-36.18-246.21-44.7-370.14-17.87C313.07,198.61,190.88,230.63,196.13,345.09z"/>
		<path id="XMLID_77_" class="st3" d="M227.89,360.1c-0.53,97.3,40.15,201.24,85.39,284.27c43.47,79.8,117.77,190.26,200.57,228.33
			c82.98,38.15,174.13-76.38,218.62-138.43c62.89-87.71,107.59-182.18,131.52-289.41c26.54-118.97-3.19-185.16-115.18-218.63
			c-110.23-32.94-224.14-40.69-336.96-16.27C334.35,226.74,223.11,255.9,227.89,360.1z"/>
		<g id="XMLID_55_">
			<path id="XMLID_76_" class="st4" d="M691.53,489.11c7.21-6.77,10.82-15.27,10.82-25.5c0-9.95-3.47-18.31-10.41-25.09
				c-6.94-6.77-16.12-10.16-27.55-10.16h-56.74v70.91h55.11C674.72,499.27,684.31,495.89,691.53,489.11z"/>
			<path id="XMLID_75_" class="st4" d="M486.19,442.05c-7.49-8.02-17.62-12.03-30.41-12.03h-51.84v82.1h51.03
				c12.51,0,22.72-3.87,30.62-11.61c7.89-7.74,11.84-17.55,11.84-29.44C497.42,459.74,493.67,450.07,486.19,442.05z"/>
			<path id="XMLID_74_" class="st4" d="M667.24,547.37h-59.6v76.71h61.23c13.33,0,23.74-3.53,31.23-10.57
				c7.48-7.05,11.23-16.24,11.23-27.58c0-11.33-3.81-20.59-11.43-27.79C692.27,550.97,681.39,547.37,667.24,547.37z"/>
			<path id="XMLID_70_" d="M753.37,549.24c-8.98-12.03-21.09-20.8-36.33-26.33v-3.32c11.7-5.8,21.16-14.16,28.37-25.08
				c7.21-10.92,10.82-23.85,10.82-38.77c0-14.1-3.95-27.09-11.84-38.98c-7.9-11.88-18.71-21.29-32.45-28.2
				c-13.75-6.91-28.78-10.37-45.11-10.37h-85.2v-0.06h-63.89c23.52,12.8,47.05,37.31,50.37,84.36c0.79,5.49,6.33,57.45-59.88,93.74
				l80.12,118.85h82.57c17.69,0,33.81-3.38,48.37-10.16c14.56-6.77,26.13-16.44,34.7-29.03c8.57-12.57,12.86-27.02,12.86-43.33
				C766.84,575.71,762.35,561.26,753.37,549.24z M607.64,428.37h56.74c11.43,0,20.61,3.39,27.55,10.16
				c6.94,6.78,10.41,15.14,10.41,25.09c0,10.23-3.61,18.73-10.82,25.5c-7.21,6.78-16.81,10.16-28.78,10.16h-55.11V428.37z
				 M700.1,613.51c-7.49,7.05-17.9,10.57-31.23,10.57h-61.23v-76.71h59.6c14.15,0,25.04,3.59,32.66,10.78
				c7.62,7.19,11.43,16.45,11.43,27.79C711.33,597.27,707.58,606.46,700.1,613.51z"/>
			<path id="XMLID_69_" class="st4" d="M486.19,442.05c-7.49-8.02-17.62-12.03-30.41-12.03h-51.84v82.1h51.03
				c12.51,0,22.72-3.87,30.62-11.61c7.89-7.74,11.84-17.55,11.84-29.44C497.42,459.74,493.67,450.07,486.19,442.05z"/>
			<g id="XMLID_64_">
				<path id="XMLID_68_" class="st4" d="M486.19,442.05c-7.49-8.02-17.62-12.03-30.41-12.03h-51.84v82.1h51.03
					c12.51,0,22.72-3.87,30.62-11.61c7.89-7.74,11.84-17.55,11.84-29.44C497.42,459.74,493.67,450.07,486.19,442.05z"/>
				<path id="XMLID_65_" d="M487.92,550.88l7.19-3.55c66.4-32.75,59.67-80.89,59.35-82.92l-0.08-0.65
					c-5.8-84.66-83.94-85.63-87.26-85.63h-48.21l0.09,0.06h-70.18v246.85h0.01c0.14,0.97,0.33,1.89,0.51,2.82
					c8.25,42.61,53.51,47.13,54.54,47.22c0.01,0,0.05,0,0.05,0v-50.04h-0.01v-61.5h25.72l75.52,111.54h47.36h15.92h3.19
					L487.92,550.88z M454.96,512.13h-51.03v-82.1h51.84c12.79,0,22.92,4.01,30.41,12.03c7.48,8.02,11.23,17.69,11.23,29.02
					c0,11.89-3.95,21.7-11.84,29.44C477.68,508.26,467.48,512.13,454.96,512.13z"/>
			</g>
		</g>
	</g>
</g>
</svg>
